<mxfile host="app.diagrams.net" modified="2021-01-12T10:58:15.528Z" agent="5.0 (Macintosh; Intel Mac OS X 10_15_6) AppleWebKit/537.36 (KHTML, like Gecko) Chrome/87.0.4280.141 Safari/537.36" etag="bP4eHjHEdLx3EHi4q0-G" version="14.1.9" type="github">
  <diagram id="S9-l1qFPbtQU_bEVsNZY" name="Page-1">
    <mxGraphModel dx="1300" dy="707" grid="1" gridSize="10" guides="1" tooltips="1" connect="1" arrows="1" fold="1" page="1" pageScale="1" pageWidth="827" pageHeight="1169" math="0" shadow="0">
      <root>
        <mxCell id="0" />
        <mxCell id="1" parent="0" />
        <mxCell id="Q1z0Z8wf6GMw6cDRc0Bl-1" value="" style="rounded=1;whiteSpace=wrap;html=1;shadow=1;glass=0;sketch=0;" vertex="1" parent="1">
          <mxGeometry x="220" y="1150" width="1150" height="725" as="geometry" />
        </mxCell>
        <mxCell id="Q1z0Z8wf6GMw6cDRc0Bl-2" value="" style="rounded=1;whiteSpace=wrap;html=1;sketch=0;glass=0;shadow=1;dashed=1;strokeColor=#FF6666;" vertex="1" parent="1">
          <mxGeometry x="280" y="1225" width="460" height="530" as="geometry" />
        </mxCell>
        <mxCell id="Q1z0Z8wf6GMw6cDRc0Bl-3" value="&lt;font style=&quot;font-size: 18px&quot;&gt;索引管理&lt;/font&gt;" style="rounded=1;whiteSpace=wrap;html=1;fillColor=#ffe6cc;strokeColor=#d79b00;" vertex="1" parent="1">
          <mxGeometry x="335" y="1420" width="355" height="40" as="geometry" />
        </mxCell>
        <mxCell id="Q1z0Z8wf6GMw6cDRc0Bl-4" value="&lt;font style=&quot;font-size: 18px&quot;&gt;内存索引&lt;/font&gt;" style="shape=cylinder3;whiteSpace=wrap;html=1;boundedLbl=1;backgroundOutline=1;size=15;fillColor=#dae8fc;strokeColor=#6c8ebf;" vertex="1" parent="1">
          <mxGeometry x="335" y="1515" width="110" height="70" as="geometry" />
        </mxCell>
        <mxCell id="Q1z0Z8wf6GMw6cDRc0Bl-5" value="&lt;font style=&quot;font-size: 18px&quot;&gt;磁盘冷备&lt;/font&gt;" style="shape=cylinder3;whiteSpace=wrap;html=1;boundedLbl=1;backgroundOutline=1;size=15;fillColor=#d5e8d4;strokeColor=#82b366;" vertex="1" parent="1">
          <mxGeometry x="335" y="1595" width="110" height="70" as="geometry" />
        </mxCell>
        <mxCell id="Q1z0Z8wf6GMw6cDRc0Bl-6" value="&lt;font style=&quot;font-size: 18px&quot;&gt;COS冷备&lt;/font&gt;" style="shape=cylinder3;whiteSpace=wrap;html=1;boundedLbl=1;backgroundOutline=1;size=15;fillColor=#f8cecc;strokeColor=#b85450;" vertex="1" parent="1">
          <mxGeometry x="336" y="1665" width="365" height="80" as="geometry" />
        </mxCell>
        <mxCell id="Q1z0Z8wf6GMw6cDRc0Bl-7" value="&lt;font style=&quot;font-size: 18px&quot;&gt;分片1&lt;/font&gt;" style="text;html=1;strokeColor=none;fillColor=none;align=center;verticalAlign=middle;whiteSpace=wrap;rounded=0;shadow=1;glass=0;sketch=0;" vertex="1" parent="1">
          <mxGeometry x="336" y="1225" width="50" height="20" as="geometry" />
        </mxCell>
        <mxCell id="Q1z0Z8wf6GMw6cDRc0Bl-8" value="&lt;font style=&quot;font-size: 24px&quot;&gt;...&lt;/font&gt;" style="text;html=1;strokeColor=none;fillColor=none;align=center;verticalAlign=middle;whiteSpace=wrap;rounded=0;shadow=1;glass=0;sketch=0;" vertex="1" parent="1">
          <mxGeometry x="1230" y="1390" width="40" height="20" as="geometry" />
        </mxCell>
        <mxCell id="Q1z0Z8wf6GMw6cDRc0Bl-9" value="&lt;font style=&quot;font-size: 18px&quot;&gt;查询&lt;/font&gt;" style="rounded=1;whiteSpace=wrap;html=1;shadow=1;glass=0;sketch=0;fillColor=#60a917;strokeColor=#2D7600;fontColor=#ffffff;" vertex="1" parent="1">
          <mxGeometry x="340" y="1305" width="80" height="30" as="geometry" />
        </mxCell>
        <mxCell id="Q1z0Z8wf6GMw6cDRc0Bl-10" value="&lt;font style=&quot;font-size: 18px&quot;&gt;添加&lt;/font&gt;" style="rounded=1;whiteSpace=wrap;html=1;shadow=1;glass=0;sketch=0;fillColor=#60a917;strokeColor=#2D7600;fontColor=#ffffff;" vertex="1" parent="1">
          <mxGeometry x="430" y="1305" width="80" height="30" as="geometry" />
        </mxCell>
        <mxCell id="Q1z0Z8wf6GMw6cDRc0Bl-11" value="&lt;font style=&quot;font-size: 18px&quot;&gt;删除&lt;/font&gt;" style="rounded=1;whiteSpace=wrap;html=1;shadow=1;glass=0;sketch=0;fillColor=#60a917;strokeColor=#2D7600;fontColor=#ffffff;" vertex="1" parent="1">
          <mxGeometry x="520" y="1305" width="80" height="30" as="geometry" />
        </mxCell>
        <mxCell id="Q1z0Z8wf6GMw6cDRc0Bl-12" value="&lt;font style=&quot;font-size: 18px&quot;&gt;构建索引&lt;/font&gt;" style="rounded=1;whiteSpace=wrap;html=1;shadow=1;glass=0;sketch=0;fillColor=#60a917;strokeColor=#2D7600;fontColor=#ffffff;" vertex="1" parent="1">
          <mxGeometry x="610" y="1305" width="80" height="30" as="geometry" />
        </mxCell>
        <mxCell id="Q1z0Z8wf6GMw6cDRc0Bl-13" value="&lt;font style=&quot;font-size: 18px&quot;&gt;API&lt;/font&gt;" style="rounded=1;whiteSpace=wrap;html=1;fillColor=#60a917;strokeColor=#2D7600;fontColor=#ffffff;" vertex="1" parent="1">
          <mxGeometry x="335" y="1255" width="355" height="40" as="geometry" />
        </mxCell>
        <mxCell id="Q1z0Z8wf6GMw6cDRc0Bl-14" value="&lt;font style=&quot;font-size: 24px&quot;&gt;业务1&lt;/font&gt;" style="text;html=1;strokeColor=none;fillColor=none;align=center;verticalAlign=middle;whiteSpace=wrap;rounded=0;shadow=1;glass=0;sketch=0;" vertex="1" parent="1">
          <mxGeometry x="260" y="1175" width="80" height="20" as="geometry" />
        </mxCell>
        <mxCell id="Q1z0Z8wf6GMw6cDRc0Bl-15" value="&lt;font style=&quot;font-size: 24px&quot;&gt;数据索引&lt;/font&gt;" style="text;html=1;strokeColor=none;fillColor=none;align=center;verticalAlign=middle;whiteSpace=wrap;rounded=0;shadow=1;glass=0;dashed=1;sketch=0;" vertex="1" parent="1">
          <mxGeometry x="50" y="1500" width="130" height="20" as="geometry" />
        </mxCell>
        <mxCell id="Q1z0Z8wf6GMw6cDRc0Bl-16" value="&lt;span style=&quot;font-size: 18px&quot;&gt;一致性管理（WOLF）&lt;/span&gt;" style="rounded=1;whiteSpace=wrap;html=1;fillColor=#e1d5e7;strokeColor=#9673a6;" vertex="1" parent="1">
          <mxGeometry x="336" y="1460" width="355" height="40" as="geometry" />
        </mxCell>
        <mxCell id="Q1z0Z8wf6GMw6cDRc0Bl-17" value="&lt;font style=&quot;font-size: 18px&quot;&gt;内存索引&lt;/font&gt;" style="shape=cylinder3;whiteSpace=wrap;html=1;boundedLbl=1;backgroundOutline=1;size=15;fillColor=#dae8fc;strokeColor=#6c8ebf;" vertex="1" parent="1">
          <mxGeometry x="460" y="1515" width="110" height="70" as="geometry" />
        </mxCell>
        <mxCell id="Q1z0Z8wf6GMw6cDRc0Bl-18" value="&lt;font style=&quot;font-size: 18px&quot;&gt;磁盘冷备&lt;/font&gt;" style="shape=cylinder3;whiteSpace=wrap;html=1;boundedLbl=1;backgroundOutline=1;size=15;fillColor=#d5e8d4;strokeColor=#82b366;" vertex="1" parent="1">
          <mxGeometry x="463.5" y="1595" width="110" height="70" as="geometry" />
        </mxCell>
        <mxCell id="Q1z0Z8wf6GMw6cDRc0Bl-19" value="&lt;font style=&quot;font-size: 18px&quot;&gt;内存索引&lt;/font&gt;" style="shape=cylinder3;whiteSpace=wrap;html=1;boundedLbl=1;backgroundOutline=1;size=15;fillColor=#dae8fc;strokeColor=#6c8ebf;" vertex="1" parent="1">
          <mxGeometry x="590" y="1515" width="110" height="70" as="geometry" />
        </mxCell>
        <mxCell id="Q1z0Z8wf6GMw6cDRc0Bl-20" value="&lt;font style=&quot;font-size: 18px&quot;&gt;磁盘冷备&lt;/font&gt;" style="shape=cylinder3;whiteSpace=wrap;html=1;boundedLbl=1;backgroundOutline=1;size=15;fillColor=#d5e8d4;strokeColor=#82b366;" vertex="1" parent="1">
          <mxGeometry x="591" y="1595" width="110" height="70" as="geometry" />
        </mxCell>
        <mxCell id="Q1z0Z8wf6GMw6cDRc0Bl-21" value="" style="shape=flexArrow;endArrow=classic;startArrow=classic;html=1;" edge="1" parent="1">
          <mxGeometry width="50" height="50" relative="1" as="geometry">
            <mxPoint x="508.82000000000016" y="1400" as="sourcePoint" />
            <mxPoint x="508.82000000000016" y="1350" as="targetPoint" />
          </mxGeometry>
        </mxCell>
        <mxCell id="Q1z0Z8wf6GMw6cDRc0Bl-22" value="" style="rounded=1;whiteSpace=wrap;html=1;sketch=0;glass=0;shadow=1;dashed=1;" vertex="1" parent="1">
          <mxGeometry x="860" y="1225" width="460" height="530" as="geometry" />
        </mxCell>
        <mxCell id="Q1z0Z8wf6GMw6cDRc0Bl-23" value="&lt;font style=&quot;font-size: 18px&quot;&gt;索引管理&lt;/font&gt;" style="rounded=1;whiteSpace=wrap;html=1;fillColor=#ffe6cc;strokeColor=#d79b00;" vertex="1" parent="1">
          <mxGeometry x="915" y="1420" width="355" height="40" as="geometry" />
        </mxCell>
        <mxCell id="Q1z0Z8wf6GMw6cDRc0Bl-24" value="&lt;font style=&quot;font-size: 18px&quot;&gt;内存索引&lt;/font&gt;" style="shape=cylinder3;whiteSpace=wrap;html=1;boundedLbl=1;backgroundOutline=1;size=15;fillColor=#dae8fc;strokeColor=#6c8ebf;" vertex="1" parent="1">
          <mxGeometry x="915" y="1515" width="110" height="70" as="geometry" />
        </mxCell>
        <mxCell id="Q1z0Z8wf6GMw6cDRc0Bl-25" value="&lt;font style=&quot;font-size: 18px&quot;&gt;磁盘冷备&lt;/font&gt;" style="shape=cylinder3;whiteSpace=wrap;html=1;boundedLbl=1;backgroundOutline=1;size=15;fillColor=#d5e8d4;strokeColor=#82b366;" vertex="1" parent="1">
          <mxGeometry x="915" y="1595" width="110" height="70" as="geometry" />
        </mxCell>
        <mxCell id="Q1z0Z8wf6GMw6cDRc0Bl-26" value="&lt;font style=&quot;font-size: 18px&quot;&gt;COS冷备&lt;/font&gt;" style="shape=cylinder3;whiteSpace=wrap;html=1;boundedLbl=1;backgroundOutline=1;size=15;fillColor=#f8cecc;strokeColor=#b85450;" vertex="1" parent="1">
          <mxGeometry x="916" y="1665" width="365" height="80" as="geometry" />
        </mxCell>
        <mxCell id="Q1z0Z8wf6GMw6cDRc0Bl-27" value="&lt;font style=&quot;font-size: 18px&quot;&gt;分片N&lt;/font&gt;" style="text;html=1;strokeColor=none;fillColor=none;align=center;verticalAlign=middle;whiteSpace=wrap;rounded=0;shadow=1;glass=0;sketch=0;" vertex="1" parent="1">
          <mxGeometry x="916" y="1225" width="64" height="20" as="geometry" />
        </mxCell>
        <mxCell id="Q1z0Z8wf6GMw6cDRc0Bl-28" value="&lt;font style=&quot;font-size: 18px&quot;&gt;查询&lt;/font&gt;" style="rounded=1;whiteSpace=wrap;html=1;shadow=1;glass=0;sketch=0;fillColor=#60a917;strokeColor=#2D7600;fontColor=#ffffff;" vertex="1" parent="1">
          <mxGeometry x="920" y="1305" width="80" height="30" as="geometry" />
        </mxCell>
        <mxCell id="Q1z0Z8wf6GMw6cDRc0Bl-29" value="&lt;font style=&quot;font-size: 18px&quot;&gt;添加&lt;/font&gt;" style="rounded=1;whiteSpace=wrap;html=1;shadow=1;glass=0;sketch=0;fillColor=#60a917;strokeColor=#2D7600;fontColor=#ffffff;" vertex="1" parent="1">
          <mxGeometry x="1010" y="1305" width="80" height="30" as="geometry" />
        </mxCell>
        <mxCell id="Q1z0Z8wf6GMw6cDRc0Bl-30" value="&lt;font style=&quot;font-size: 18px&quot;&gt;删除&lt;/font&gt;" style="rounded=1;whiteSpace=wrap;html=1;shadow=1;glass=0;sketch=0;fillColor=#60a917;strokeColor=#2D7600;fontColor=#ffffff;" vertex="1" parent="1">
          <mxGeometry x="1100" y="1305" width="80" height="30" as="geometry" />
        </mxCell>
        <mxCell id="Q1z0Z8wf6GMw6cDRc0Bl-31" value="&lt;font style=&quot;font-size: 18px&quot;&gt;构建索引&lt;/font&gt;" style="rounded=1;whiteSpace=wrap;html=1;shadow=1;glass=0;sketch=0;fillColor=#60a917;strokeColor=#2D7600;fontColor=#ffffff;" vertex="1" parent="1">
          <mxGeometry x="1190" y="1305" width="80" height="30" as="geometry" />
        </mxCell>
        <mxCell id="Q1z0Z8wf6GMw6cDRc0Bl-32" value="&lt;font style=&quot;font-size: 18px&quot;&gt;API&lt;/font&gt;" style="rounded=1;whiteSpace=wrap;html=1;fillColor=#60a917;strokeColor=#2D7600;fontColor=#ffffff;" vertex="1" parent="1">
          <mxGeometry x="915" y="1255" width="355" height="40" as="geometry" />
        </mxCell>
        <mxCell id="Q1z0Z8wf6GMw6cDRc0Bl-33" value="&lt;span style=&quot;font-size: 18px&quot;&gt;一致性管理（WOLF）&lt;/span&gt;" style="rounded=1;whiteSpace=wrap;html=1;fillColor=#e1d5e7;strokeColor=#9673a6;" vertex="1" parent="1">
          <mxGeometry x="916" y="1460" width="355" height="40" as="geometry" />
        </mxCell>
        <mxCell id="Q1z0Z8wf6GMw6cDRc0Bl-34" value="&lt;font style=&quot;font-size: 18px&quot;&gt;内存索引&lt;/font&gt;" style="shape=cylinder3;whiteSpace=wrap;html=1;boundedLbl=1;backgroundOutline=1;size=15;fillColor=#dae8fc;strokeColor=#6c8ebf;" vertex="1" parent="1">
          <mxGeometry x="1040" y="1515" width="110" height="70" as="geometry" />
        </mxCell>
        <mxCell id="Q1z0Z8wf6GMw6cDRc0Bl-35" value="&lt;font style=&quot;font-size: 18px&quot;&gt;磁盘冷备&lt;/font&gt;" style="shape=cylinder3;whiteSpace=wrap;html=1;boundedLbl=1;backgroundOutline=1;size=15;fillColor=#d5e8d4;strokeColor=#82b366;" vertex="1" parent="1">
          <mxGeometry x="1043.5" y="1595" width="110" height="70" as="geometry" />
        </mxCell>
        <mxCell id="Q1z0Z8wf6GMw6cDRc0Bl-36" value="&lt;font style=&quot;font-size: 18px&quot;&gt;内存索引&lt;/font&gt;" style="shape=cylinder3;whiteSpace=wrap;html=1;boundedLbl=1;backgroundOutline=1;size=15;fillColor=#dae8fc;strokeColor=#6c8ebf;" vertex="1" parent="1">
          <mxGeometry x="1170" y="1515" width="110" height="70" as="geometry" />
        </mxCell>
        <mxCell id="Q1z0Z8wf6GMw6cDRc0Bl-37" value="&lt;font style=&quot;font-size: 18px&quot;&gt;磁盘冷备&lt;/font&gt;" style="shape=cylinder3;whiteSpace=wrap;html=1;boundedLbl=1;backgroundOutline=1;size=15;fillColor=#d5e8d4;strokeColor=#82b366;" vertex="1" parent="1">
          <mxGeometry x="1170" y="1595" width="110" height="70" as="geometry" />
        </mxCell>
        <mxCell id="Q1z0Z8wf6GMw6cDRc0Bl-38" value="" style="shape=flexArrow;endArrow=classic;startArrow=classic;html=1;" edge="1" parent="1">
          <mxGeometry width="50" height="50" relative="1" as="geometry">
            <mxPoint x="1088.8200000000002" y="1399.9999999999995" as="sourcePoint" />
            <mxPoint x="1088.8200000000002" y="1349.9999999999995" as="targetPoint" />
          </mxGeometry>
        </mxCell>
        <mxCell id="Q1z0Z8wf6GMw6cDRc0Bl-39" value="&lt;font style=&quot;font-size: 24px&quot;&gt;...&lt;/font&gt;" style="text;html=1;strokeColor=none;fillColor=none;align=center;verticalAlign=middle;whiteSpace=wrap;rounded=0;shadow=1;glass=0;sketch=0;" vertex="1" parent="1">
          <mxGeometry x="780" y="1515" width="40" height="20" as="geometry" />
        </mxCell>
        <mxCell id="Q1z0Z8wf6GMw6cDRc0Bl-40" value="&lt;font style=&quot;font-size: 18px&quot;&gt;基于TAF框架&lt;/font&gt;" style="rounded=1;whiteSpace=wrap;html=1;shadow=1;glass=0;sketch=0;fillColor=#f5f5f5;strokeColor=#666666;fontColor=#333333;" vertex="1" parent="1">
          <mxGeometry x="310" y="1775" width="1020" height="60" as="geometry" />
        </mxCell>
        <mxCell id="Q1z0Z8wf6GMw6cDRc0Bl-41" value="" style="rounded=1;whiteSpace=wrap;html=1;shadow=1;glass=0;sketch=0;" vertex="1" parent="1">
          <mxGeometry x="250" y="920" width="540" height="100" as="geometry" />
        </mxCell>
        <mxCell id="Q1z0Z8wf6GMw6cDRc0Bl-42" value="&lt;font style=&quot;font-size: 18px&quot;&gt;数据归并&lt;/font&gt;" style="rounded=1;whiteSpace=wrap;html=1;shadow=1;glass=0;sketch=0;fillColor=#d5e8d4;strokeColor=#82b366;" vertex="1" parent="1">
          <mxGeometry x="365" y="940" width="120" height="60" as="geometry" />
        </mxCell>
        <mxCell id="Q1z0Z8wf6GMw6cDRc0Bl-43" value="&lt;font style=&quot;font-size: 18px&quot;&gt;路由管理&lt;/font&gt;" style="rounded=1;whiteSpace=wrap;html=1;shadow=1;glass=0;sketch=0;fillColor=#d5e8d4;strokeColor=#82b366;" vertex="1" parent="1">
          <mxGeometry x="535" y="940" width="120" height="60" as="geometry" />
        </mxCell>
        <mxCell id="Q1z0Z8wf6GMw6cDRc0Bl-44" value="&lt;font style=&quot;font-size: 24px&quot;&gt;接入代理&lt;/font&gt;" style="text;html=1;strokeColor=none;fillColor=none;align=center;verticalAlign=middle;whiteSpace=wrap;rounded=0;shadow=1;glass=0;dashed=1;sketch=0;" vertex="1" parent="1">
          <mxGeometry x="50" y="950" width="130" height="20" as="geometry" />
        </mxCell>
        <mxCell id="Q1z0Z8wf6GMw6cDRc0Bl-45" value="Actor" style="shape=umlActor;verticalLabelPosition=bottom;verticalAlign=top;html=1;outlineConnect=0;shadow=1;glass=0;sketch=0;" vertex="1" parent="1">
          <mxGeometry x="485" y="720" width="30" height="60" as="geometry" />
        </mxCell>
        <mxCell id="Q1z0Z8wf6GMw6cDRc0Bl-46" value="" style="shape=flexArrow;endArrow=classic;html=1;" edge="1" parent="1">
          <mxGeometry width="50" height="50" relative="1" as="geometry">
            <mxPoint x="499.4099999999994" y="810" as="sourcePoint" />
            <mxPoint x="499.4099999999994" y="910" as="targetPoint" />
          </mxGeometry>
        </mxCell>
        <mxCell id="Q1z0Z8wf6GMw6cDRc0Bl-47" value="" style="shape=flexArrow;endArrow=classic;html=1;" edge="1" parent="1">
          <mxGeometry width="50" height="50" relative="1" as="geometry">
            <mxPoint x="499.4099999999994" y="1040" as="sourcePoint" />
            <mxPoint x="499.4099999999994" y="1140" as="targetPoint" />
          </mxGeometry>
        </mxCell>
        <mxCell id="Q1z0Z8wf6GMw6cDRc0Bl-48" value="" style="rounded=1;whiteSpace=wrap;html=1;shadow=1;glass=0;sketch=0;" vertex="1" parent="1">
          <mxGeometry x="880" y="920" width="460" height="100" as="geometry" />
        </mxCell>
        <mxCell id="Q1z0Z8wf6GMw6cDRc0Bl-49" value="&lt;font style=&quot;font-size: 18px&quot;&gt;模型训练&lt;/font&gt;" style="rounded=1;whiteSpace=wrap;html=1;shadow=1;glass=0;sketch=0;fillColor=#d5e8d4;strokeColor=#82b366;" vertex="1" parent="1">
          <mxGeometry x="916" y="940" width="120" height="60" as="geometry" />
        </mxCell>
        <mxCell id="Q1z0Z8wf6GMw6cDRc0Bl-50" value="&lt;span style=&quot;font-size: 18px&quot;&gt;模型上线&lt;/span&gt;" style="rounded=1;whiteSpace=wrap;html=1;shadow=1;glass=0;sketch=0;fillColor=#d5e8d4;strokeColor=#82b366;" vertex="1" parent="1">
          <mxGeometry x="1050" y="940" width="120" height="60" as="geometry" />
        </mxCell>
        <mxCell id="Q1z0Z8wf6GMw6cDRc0Bl-51" value="&lt;span style=&quot;font-size: 18px&quot;&gt;模块注册&lt;/span&gt;" style="rounded=1;whiteSpace=wrap;html=1;shadow=1;glass=0;sketch=0;fillColor=#d5e8d4;strokeColor=#82b366;" vertex="1" parent="1">
          <mxGeometry x="1190" y="940" width="120" height="60" as="geometry" />
        </mxCell>
        <mxCell id="Q1z0Z8wf6GMw6cDRc0Bl-52" value="&lt;font style=&quot;font-size: 24px&quot;&gt;模块管理&lt;/font&gt;" style="text;html=1;strokeColor=none;fillColor=none;align=center;verticalAlign=middle;whiteSpace=wrap;rounded=0;shadow=1;glass=0;dashed=1;sketch=0;" vertex="1" parent="1">
          <mxGeometry x="1370" y="950" width="130" height="20" as="geometry" />
        </mxCell>
        <mxCell id="Q1z0Z8wf6GMw6cDRc0Bl-53" value="" style="shape=flexArrow;endArrow=classic;html=1;" edge="1" parent="1">
          <mxGeometry width="50" height="50" relative="1" as="geometry">
            <mxPoint x="1088.5699999999993" y="1040" as="sourcePoint" />
            <mxPoint x="1088.5699999999993" y="1140" as="targetPoint" />
          </mxGeometry>
        </mxCell>
      </root>
    </mxGraphModel>
  </diagram>
</mxfile>
